<?xml version="1.0" encoding="utf-8"?>
<svg xmlns="http://www.w3.org/2000/svg"
     viewBox="0 0 65 65">
    <title>GitBook</title>

    <path d="m27.396 34.22c3.1291 1.806 4.6936 2.709 6.4119 2.7105 1.7182 0.0015 3.2843-0.8988 6.4166-2.6993l19.966-11.477c0.9013-0.5181 1.457-1.4785 1.457-2.5182s-0.5557-2.0001-1.457-2.5182l-19.974-11.482c-3.1289-1.7986-4.6934-2.6979-6.4099-2.6972-1.7166 6.7e-4 -3.2803 0.90118-6.4078 2.7022l-17.171 9.888c-0.1273 0.0733-0.1909 0.11-0.25022 0.1447-5.8654 3.4336-9.4892 9.7022-9.5376 16.498-4.9e-4 0.0687-4.9e-4 0.1421-4.9e-4 0.289 0 0.1466 0 0.22 4.89e-4 0.2886 0.048348 6.7887 3.6641 13.051 9.519 16.488 0.05916 0.0347 0.12276 0.0714 0.24976 0.1448l10.756 6.21c6.2673 3.6185 9.4009 5.4278 12.842 5.429 3.4412 0.0011 6.5761-1.806 12.846-5.4204l11.354-6.5453c3.1394-1.8098 4.7091-2.7146 5.571-4.2064s0.8619-3.3036 0.8619-6.9273v-7.0003c0-1.0052-0.5444-1.9316-1.4227-2.4208-0.8498-0.4733-1.8857-0.4663-2.7291 0.0185l-23.282 13.383c-1.562 0.8979-2.3431 1.3469-3.2001 1.3472-0.8571 2e-4 -1.6384-0.4483-3.201-1.3452l-15.758-9.0452c-0.7893-0.4531-1.184-0.6797-1.501-0.7206-0.7227-0.0933-1.4176 0.3116-1.6929 0.9863-0.1207 0.2959-0.1183 0.751-0.1134 1.6611 0.0036 0.67 0.0054 1.005 0.068 1.3132 0.1403 0.6901 0.5033 1.3149 1.0334 1.7785 0.2367 0.207 0.5268 0.3745 1.1072 0.7094l16.847 9.7237c1.5667 0.9042 2.35 1.3563 3.2101 1.3566 0.8602 2e-4 1.6438-0.4515 3.2109-1.3548l20.65-11.904c0.5353-0.3086 0.803-0.4629 1.0037-0.3469 0.2006 0.116 0.2006 0.4249 0.2006 1.0428v3.1751c0 0.906 0 1.3589-0.2155 1.7319-0.2154 0.3729-0.6079 0.5991-1.3928 1.0516l-17.032 9.818c-3.1356 1.8075-4.7034 2.7112-6.4243 2.7104-1.721-8e-4 -3.288-0.9059-6.4219-2.7163l-15.935-9.205c-0.0506-0.0293-0.0759-0.0439-0.0995-0.0577-3.3412-1.9524-5.4028-5.5242-5.4222-9.394-1.3e-4 -0.0273-1.3e-4 -0.0565-1.3e-4 -0.115v-2.9146c0-2.1363 1.1378-4.1109 2.986-5.1822 1.6332-0.9466 3.6477-0.9485 5.2826-0.0049l13.199 7.6178z"
          fill="#f2f7f7"/>
</svg>
