<?xml version="1.0" encoding="utf-8"?>
<svg xmlns="http://www.w3.org/2000/svg"
     viewBox="0 0 100 100">
    <title>Vezel</title>

    <g fill="#000000">
        <path d="m50 2c-26.467 0-48 21.533-48 48s21.533 48 48 48 48-21.533 48-48-21.533-48-48-48zm28.024 81.895c-2.113 1.75-4.393 3.302-6.81 4.638l12.652-66.59c1.749 2.107 3.301 4.382 4.638 6.793l-10.48 55.159zm-23.524-34.083-2.964-15.602 5.26-27.684c1.94.302 3.836.739 5.684 1.287l-7.98 41.999zm-2.036 10.715-2.964 15.601-12.925-68.026c1.838-.59 3.729-1.056 5.662-1.402l10.227 53.827zm-3.645 33.443c-2.05-.055-4.066-.245-6.037-.572l-15.412-81.116c1.728-1.041 3.532-1.967 5.403-2.766l16.046 84.454zm2.717-7.128 14.763-77.7c1.877.752 3.69 1.628 5.43 2.621l-15.54 81.793c-1.092.154-2.197.267-3.313.339l-1.34-7.053zm23.825-72.764c1.814 1.284 3.526 2.701 5.123 4.238l-13.75 72.369c-2.035.84-4.146 1.529-6.32 2.058l14.947-78.665zm-22.556-7.979-3.305 17.397-3.291-17.322c1.251-.107 2.513-.174 3.791-.174.943 0 1.877.04 2.805.099zm-29.047 8.606 14.776 77.77c-2.192-.592-4.315-1.352-6.358-2.261l-13.503-71.072c1.58-1.603 3.277-3.09 5.085-4.437zm-12.997 15.427c1.293-2.542 2.824-4.942 4.566-7.171l12.336 64.926c-2.458-1.455-4.762-3.14-6.884-5.029l-10.018-52.726zm-2.78 6.8 7.708 40.569c-6.054-7.539-9.689-17.101-9.689-27.501 0-4.548.694-8.938 1.981-13.068zm75.038 42.103 8.359-43.994c1.694 4.672 2.622 9.709 2.622 14.959 0 11.119-4.154 21.28-10.981 29.035z" />
    </g>

    <g fill="#d45500">
        <path d="m7.8009 36.757c-.61593.50137-.55342 1.4494-.82168 2.1493-2.8057 10.767-1.3844 22.578 4.0099 32.321 1.2439 2.2251 2.6138 4.4075 4.2563 6.3573.58069.33498.97076-.43515.70921-.91325-2.4667-13.234-4.9962-26.463-7.5053-39.684-.13313-.23824-.39658-.31299-.64836-.23066z" />
        <path d="m15.271 22.778c-.81561.2507-1.1564 1.1962-1.6808 1.8022-1.1447 1.7528-2.3908 3.4834-3.1786 5.4319.06259 1.437.5086 2.8602.71544 4.291 3.0563 16.179 6.0822 32.365 9.2151 48.529.75833 1.12 1.9921 1.83 3.0174 2.6876 1.338.94907 2.6526 1.9979 4.1396 2.6932.91602-.10242.38212-1.1665.33118-1.7394-3.992-21.107-7.9849-42.214-12.019-63.313-.064877-.23275-.30072-.39573-.54007-.38235z" />
        <path d="m23.403 14.519c-1.6738 1.0376-3.0658 2.4813-4.5307 3.7886-.60444.41922-.66038 1.1805-.44409 1.8257 4.3966 23.357 8.836 46.707 13.343 70.043.28682.78177 1.3155.80304 1.9664 1.1623 1.5337.5695 3.0817 1.1127 4.6542 1.5618.90824-.09991.39203-1.1491.3351-1.7217-4.5922-24.185-9.1334-48.379-13.838-72.543-.31409-1.3102-.43567-2.69-.89726-3.9539-.16824-.19001-.35235-.2004-.5884-.16287z" />
        <path d="m32.585 9.1544c-1.764.72758-3.506 1.5699-5.111 2.6082-.80331.4231-.32408 1.364-.24081 2.0432 5.0052 26.487 10.009 52.976 15.076 79.451.35901.86213 1.5118.64946 2.2561.83291 1.4574.11988 2.9497.40906 4.3985.26775.63946-.39664.02188-1.2667.03058-1.8628-5.2752-27.65-10.484-55.316-15.8-82.959-.1132-.25652-.31022-.45013-.60943-.38145z" />
        <path d="m42.051 6.3379c-1.9167.29845-3.8413.74245-5.6576 1.4016-.56284.46064.02848 1.2827.01245 1.8847 4.1884 21.987 8.3275 43.984 12.553 65.964.10988.72708 1.1944.55514 1.1316-.16578.9483-4.9778 1.9377-9.9552 2.7541-14.954-3.028-16.493-6.1964-32.961-9.3443-49.431-.32851-1.4617-.4924-2.9903-.92103-4.4141-.089384-.22478-.30233-.30205-.52835-.28501z" />
        <path d="m48.909 5.6356c-.92361.044659-1.8746-.0706-2.7825.11119-.61783.50776-.01152 1.3681-.02886 2.0225.93897 5.0781 1.8382 10.167 2.8823 15.223.32307.61042 1.0786.16845 1.056-.40287 1.1517-5.3916 2.1755-10.814 3.0942-16.25.06847-.82524-.96743-.65858-1.4945-.6852-.90873-.017197-1.8177-.021002-2.7265-.019464z" />
        <path d="m56.954 6.148c-.82133.072221-.62369 1.1502-.83587 1.7107-1.6795 8.7496-3.4031 17.495-4.9812 26.261.86408 5.0404 1.7885 10.076 2.8816 15.073.10466.70024 1.1328.52474 1.069-.16039 2.6433-13.675 5.2216-27.37 7.8082-41.051-.13382-.85308-1.2565-.77218-1.882-1.0216-1.3416-.30835-2.6847-.69521-4.0597-.81135z" />
        <path d="m66.32 8.8045c-.72402.2792-.49044 1.2745-.73111 1.8821-4.879 25.344-9.6626 50.706-14.489 76.06.39898 2.4312.88514 4.8656 1.3793 7.2807.52348.60165 1.4354.09355 2.1109.15907.74207-.10348 2.0198.01456 2.0895-1.0287 5.1838-27.039 10.337-54.083 15.44-81.138-.0325-.79703-1.0311-1.0209-1.5835-1.4077-1.3406-.65169-2.6682-1.3902-4.1014-1.8103z" />
        <path d="m75.258 13.762c-.62389.46081-.40996 1.4122-.66399 2.0818-4.891 25.57-9.7383 51.151-14.603 76.724.0095.76262.9188.61133 1.3777.38259 1.822-.53162 3.6649-1.0624 5.4025-1.8232.75844-.52366.50788-1.6253.79229-2.3969 4.4551-23.412 8.8958-46.826 13.342-70.24-.13882-.79367-1.0139-1.2034-1.5236-1.7691-1.2353-1.0128-2.4108-2.1379-3.7834-2.96-.11015-.0519-.22722.000927-.34073 0z" />
        <path d="m83.716 21.697c-.61554.49082-.40101 1.4612-.66066 2.1496-4.0634 21.384-8.1576 42.764-12.17 64.158-.17595.62437.55716 1.0453 1.0356.64836 2.2104-1.3116 4.3561-2.7612 6.3379-4.3991.5071-.67704.36312-1.6492.62225-2.4356 3.3441-17.667 6.7065-35.33 10.061-52.995-.23914-.95263-.96473-1.7285-1.4309-2.592-1.0468-1.5228-2.0003-3.1538-3.3021-4.4732-.14737-.11388-.32245-.09313-.49309-.06063z" />
        <path d="m91.23 35.051c-.58695.52054-.41268 1.4579-.66651 2.1532-2.6896 13.76-5.2918 27.538-7.8881 41.315-.12572.66674.80004.88903 1.1023.34051 4.051-4.836 7.182-10.469 8.9166-16.547 2.5368-8.7212 2.2716-18.227-.6987-26.805-.10358-.336-.39594-.58036-.76559-.4573z"/>
    </g>
</svg>
